<svg width="1440" height="547" viewBox="0 0 1440 547" fill="none" xmlns="http://www.w3.org/2000/svg">
<path d="M381.586 526.941C390.979 533.57 400.373 540.2 410.216 546.658H406.186C396.351 540.538 387.398 534.08 378.454 527.621C367.72 520.483 341.771 516.062 309.559 515.891C297.933 516.062 286.749 516.404 275.115 517.081C242.462 519.293 208.019 523.71 172.226 528.64C114.964 536.288 56.3708 544.108 1.79053 541.728V540.371C55.4711 542.75 113.624 534.931 170.885 527.279C207.119 522.52 241.563 517.932 274.665 515.723C286.749 515.043 297.933 514.534 310.009 514.534C325.665 514.534 365.03 516.062 381.586 526.941ZM382.035 486.655C366.82 486.655 352.955 486.994 338.639 488.016C297.484 491.585 256.778 498.215 217.413 504.673C148.517 515.891 76.9487 527.45 1.34069 523.033V524.39C77.8395 528.64 149.417 517.081 218.753 505.863C258.118 499.405 298.824 492.775 339.53 489.377C353.405 488.526 366.82 488.016 381.586 488.016C403.504 490.225 419.16 496.003 427.213 504.844C437.507 518.783 450.922 533.399 469.71 546.658H473.741C454.503 533.399 441.079 518.441 430.344 504.502C422.291 495.155 405.745 489.035 382.035 486.655ZM436.157 467.109C425.873 463.707 413.797 462.179 398.133 462.179C341.771 467.109 291.221 476.795 242.462 486.317C167.754 500.765 97.5265 514.534 9.39366 511.641C6.71228 511.474 4.0309 511.303 1.79053 511.132V512.492C4.0309 512.663 6.71228 512.834 8.95265 513.002C97.9675 515.891 169.095 502.123 243.803 487.507C292.562 477.985 343.111 468.299 398.582 463.369C412.898 463.369 424.082 464.729 433.476 467.957C465.688 479.346 476.422 496.683 486.706 513.682C493.869 525.242 501.022 536.801 514.896 546.487H518.918C504.603 536.969 497.45 525.413 490.287 513.344C480.003 496.516 468.819 478.836 436.157 467.109ZM930.475 546.658H942.55C978.784 542.579 1011 540.88 1036.5 546.658H1042.76C1013.23 538.668 973.422 541.39 930.475 546.658ZM512.206 489.377C505.503 475.776 498.34 461.67 481.793 449.259C477.763 446.541 470.159 444.67 458.076 443.481C452.713 442.971 447.791 442.629 442.869 442.291C439.288 442.12 435.716 441.781 433.026 441.61C432.585 441.61 432.585 441.61 432.135 441.61C370.401 445.518 314.039 458.268 259.909 470.337C178.488 488.696 101.099 506.034 7.16212 496.516C5.37159 496.345 3.58106 496.174 1.79053 495.835V497.364C3.13122 497.534 4.92175 497.705 6.26244 497.873C49.2087 502.294 93.0458 501.275 140.023 495.155C182.069 489.715 222.775 480.535 262.141 471.697C316.271 459.628 371.742 447.05 433.026 443.139C435.716 443.481 439.288 443.652 442.869 443.819C447.341 444.161 452.713 444.5 457.635 445.009C468.819 446.199 475.522 447.73 479.103 450.11C495.659 462.347 502.363 476.286 509.075 489.715C519.368 510.451 530.102 532.042 576.18 546.658H581.993C533.684 532.21 523.39 511.474 512.206 489.377ZM1091.07 535.611C1030.23 526.77 967.159 533.57 905.867 540.2C884.398 542.579 862.479 544.959 840.561 546.487H857.558C874.105 544.959 890.66 543.26 906.766 541.39C967.159 534.931 1029.78 528.131 1089.73 536.801C1101.36 538.501 1107.62 542.07 1111.65 546.487H1115.23C1111.65 541.728 1104.49 537.649 1091.07 535.611ZM654.46 538.33C563.655 531.362 552.471 503.313 540.387 473.568C534.574 459.29 528.762 444.67 513.547 432.431L513.106 432.263C501.922 428.523 489.397 427.333 477.313 425.972H476.872C464.347 426.143 451.372 426.823 438.397 427.671C423.632 428.861 411.107 430.222 399.032 431.921C356.086 437.19 310.908 449.091 267.062 460.48C178.488 483.595 86.7833 507.733 5.37159 481.216C4.0309 480.706 2.68138 480.197 1.79053 479.855V481.725C2.24037 481.896 2.68138 482.067 3.13122 482.235C86.7833 509.432 179.388 485.127 269.303 461.499C312.69 450.11 357.877 438.38 400.373 433.111C412.448 431.412 424.532 430.051 438.847 428.861C451.372 428.013 464.347 427.5 476.422 427.162C488.497 428.352 500.131 429.542 510.415 432.94C525.181 445.009 530.993 459.458 536.815 473.568C548.44 502.465 560.524 532.381 653.57 539.519C672.357 541.39 690.694 543.26 709.491 545.13L721.566 546.32H735.881L710.381 543.769C692.044 542.241 673.248 540.371 654.46 538.33ZM1138.49 528.811C1095.1 515.552 1020.84 522.011 948.813 528.302C907.657 531.871 865.611 535.611 829.377 535.611C822.664 535.441 816.402 535.27 810.589 535.099C803.427 534.931 796.274 534.589 788.662 534.589L730.959 528.811C711.722 526.941 692.485 524.9 673.698 523.033C594.076 513.853 581.993 488.864 569.018 462.35C561.415 446.541 553.362 430.222 530.993 416.625C519.809 411.185 505.053 411.014 493.419 411.524C488.056 411.695 482.235 412.204 476.872 412.542C468.819 413.055 460.316 413.732 452.263 413.732C387.848 419.343 339.089 431.921 287.64 445.18C254.987 453.508 220.985 462.347 182.96 469.318C176.698 470.166 169.545 471.359 162.382 472.549C123.917 478.498 75.5991 485.975 48.3178 480.535C38.0245 478.498 31.762 474.757 28.6308 469.147C23.2592 461.328 27.2901 452.999 31.762 443.99C37.5747 431.75 43.8371 419.172 24.1589 408.293C18.3463 404.214 12.9747 400.815 7.60313 397.755C5.8126 396.737 4.0309 395.885 2.24037 395.037V397.417C3.13122 397.755 3.58106 398.094 4.47191 398.607C9.8435 401.663 15.2151 405.065 21.0277 409.144C40.2649 419.685 34.0024 431.921 28.181 443.819C23.7091 452.49 19.687 461.499 25.0498 469.489C28.181 475.438 35.3431 479.517 46.5273 481.896C75.5991 487.845 124.367 480.197 163.732 474.077C170.885 472.887 178.047 471.868 184.751 470.846C223.225 463.878 257.228 455.04 290.33 446.712C341.771 433.453 390.088 421.042 453.163 415.435C461.216 415.435 469.71 414.922 477.763 414.245C483.134 413.903 488.947 413.394 493.869 413.223C505.053 412.713 518.468 413.055 528.312 417.814C550.68 431.241 558.283 447.389 565.887 462.859C578.861 489.715 590.936 515.214 672.807 524.732C692.044 526.602 710.831 528.64 730.068 530.51L788.221 536.288C795.824 536.288 802.977 536.63 810.14 536.801C816.402 536.969 822.664 537.14 829.377 537.311C866.06 537.311 908.557 533.57 949.713 530.001C1020.84 523.881 1094.2 517.423 1136.25 530.339C1149.22 534.251 1158.62 539.858 1164.88 547H1168.46C1161.75 538.839 1151.91 533.061 1138.49 528.811ZM1176.06 509.262C1163.54 503.822 1138.49 505.183 1118.81 506.205C1113.44 506.543 1108.06 506.714 1103.59 506.882C1083.91 508.414 1063.34 510.284 1043.65 512.154C979.234 518.103 912.579 524.223 845.924 522.182C836.08 521.501 826.245 520.821 816.852 519.973L809.69 519.46L751.537 513.682C732.75 511.812 713.063 509.774 694.725 507.562C615.995 500.085 604.811 474.928 593.177 448.24C586.914 434.301 580.652 419.685 564.096 407.616L563.655 407.445C552.921 403.875 542.178 400.135 529.212 398.945H528.762C498.79 399.455 467.919 401.496 433.926 405.236C421.842 406.764 411.557 408.125 402.163 409.653C360.108 415.093 320.743 426.653 282.718 437.87C213.382 458.1 148.517 477.137 71.1272 463.027C46.0775 458.1 52.3399 447.559 59.0522 435.491C65.7645 423.422 73.8174 409.653 51.8901 398.436C45.6276 394.186 39.815 390.788 34.0024 387.557C23.7091 382.117 13.4246 377.867 2.24037 374.469V376.168C12.5249 379.228 21.9185 383.307 31.3122 388.237C37.1336 391.297 42.4964 394.695 48.7588 398.945C69.7865 409.653 62.1834 423.083 55.4711 434.981C48.7588 447.221 42.0554 458.61 69.3367 464.049C148.517 478.498 217.854 458.268 284.959 438.721C322.983 427.671 362.348 416.112 403.504 410.676C412.898 409.144 423.191 407.783 435.266 406.255C468.819 402.515 499.681 400.474 529.212 399.964C540.837 401.154 551.571 404.723 561.415 408.125C577.521 420.023 584.233 434.472 590.046 448.24C602.121 475.438 613.305 501.104 694.276 508.752C713.063 510.964 732.3 512.834 751.537 514.872L809.69 520.65L816.852 521.163C826.245 522.011 836.08 522.691 845.924 523.372C913.479 525.413 980.125 519.293 1044.99 513.344C1064.68 511.474 1085.25 509.603 1104.93 508.072C1109.41 507.904 1114.78 507.733 1120.15 507.395C1139.39 506.373 1163.09 505.015 1174.28 509.942C1188.59 516.913 1194.86 526.09 1200.67 534.76C1203.35 538.668 1206.04 542.579 1209.17 546.32H1212.74C1209.17 542.579 1206.48 538.5 1203.8 534.422C1197.54 525.751 1191.28 516.571 1176.06 509.262ZM1211.4 505.183C1146.09 491.756 1075.86 497.025 1008.31 502.123C949.263 506.543 888.42 511.132 828.927 503.993L739.012 494.984C652.67 489.886 634.782 462.688 616.436 433.962C607.942 421.213 599.439 408.125 584.233 396.904C569.468 390.446 539.946 384.668 510.415 386.876C498.79 388.066 487.156 389.598 475.081 391.126C464.347 392.487 452.713 394.015 440.188 395.885C392.77 399.626 346.242 412.375 301.515 424.611C232.169 443.652 166.413 461.499 102.889 446.031C86.7833 442.291 91.2553 433.791 96.6268 423.763C103.789 410.505 112.733 393.848 75.1581 382.456C64.8648 378.548 53.6806 375.317 42.0554 372.77C29.5217 369.877 16.1059 368.01 2.24037 366.65V368.01C15.2151 369.368 28.181 371.238 40.2649 373.959C51.8901 376.507 62.6332 379.737 72.9178 383.478C109.152 394.357 100.658 409.824 93.0458 423.422C87.2332 433.962 82.3114 442.971 100.658 447.221C166.413 463.198 233.069 445.009 303.296 425.801C348.033 413.565 394.11 400.986 441.079 397.246C454.054 395.547 465.238 393.848 476.422 392.487C488.947 390.955 500.581 389.598 511.765 388.237C539.946 386.028 567.677 391.635 581.993 397.585C596.758 408.464 605.252 421.551 613.755 434.13C632.092 462.008 650.888 490.905 739.462 496.174L829.377 505.183C889.32 512.492 951.053 507.904 1010.1 503.483C1080.33 498.215 1146.54 493.114 1210.95 506.372C1232.88 510.964 1242.27 521.33 1252.11 532.042C1256.59 536.801 1261.06 541.728 1266.87 546.491H1270.91C1264.63 541.56 1260.16 536.459 1255.69 531.529C1244.06 520.483 1234.66 510.113 1211.4 505.183ZM1314.74 528.469C1278.95 493.114 1226.17 480.877 1142.96 488.355C1061.1 494.813 976.553 501.613 894.682 493.285L807.458 484.447C790.011 482.747 771.665 480.877 753.778 478.836C683.541 471.868 666.095 449.091 647.307 425.121C636.123 410.505 624.489 395.376 599.889 383.307C588.705 379.567 576.18 378.377 564.096 377.016H563.655C508.184 377.358 456.294 383.136 412.448 388.917C402.163 390.446 391.87 391.977 381.586 393.677C353.846 397.755 326.564 404.214 300.165 410.505C247.825 422.912 194.145 435.661 133.311 431.412C155.229 399.116 121.677 383.645 110.942 379.737C101.099 376.168 89.9146 372.937 76.9487 370.048C53.2396 364.95 27.74 362.058 1.79053 360.701V362.058C27.2901 363.419 51.8901 366.308 75.1581 371.067C87.683 373.959 98.8672 377.019 108.261 380.589C108.702 380.756 108.702 380.756 109.152 380.927C149.858 396.395 135.101 423.763 129.28 431.75C129.28 431.921 129.28 432.092 129.28 432.263C129.73 432.431 130.179 432.602 130.629 432.602C193.704 437.361 248.725 424.273 301.956 411.524C328.355 405.236 355.195 398.774 382.926 394.866C393.22 393.167 403.504 391.635 413.348 390.107C456.735 384.497 508.184 378.719 563.205 378.377C575.73 379.567 587.364 380.756 597.208 384.158C620.917 395.885 632.542 411.014 643.726 425.463C662.513 449.939 680.41 472.887 752.428 480.197C770.324 482.235 788.662 483.937 806.109 485.804L893.342 494.645C975.653 502.974 1060.65 496.174 1143.41 489.715C1224.38 482.406 1275.82 494.475 1310.71 528.811C1312.05 531.02 1312.95 533.232 1313.84 535.27C1315.63 539.181 1316.97 543.089 1320.55 546.658H1324.14C1321 543.26 1319.21 539.348 1317.42 535.099C1316.97 532.89 1315.63 530.681 1314.74 528.469ZM1392.13 545.468C1384.97 542.918 1379.16 540.2 1374.69 537.478C1357.69 499.914 1317.87 485.466 1295.96 480.197C1270.01 474.077 1238.69 472.887 1203.35 476.628C1111.2 486.317 1019.49 483.766 942.101 480.026C930.916 479.007 919.741 477.985 908.998 477.137L798.505 465.919C778.377 465.577 761.381 461.499 744.825 457.42C739.462 456.059 733.641 454.698 727.828 453.508C695.175 443.819 682.641 428.013 670.117 412.713C654.019 392.654 638.804 373.959 580.652 370.899C524.731 367.159 471.05 372.089 425.423 377.187C415.138 378.377 404.395 379.738 394.11 381.266C367.27 384.668 342.661 389.936 318.952 394.866C279.146 403.366 242.013 411.353 198.175 409.995C173.126 408.806 163.732 400.135 154.338 390.955C147.176 384.326 140.023 377.358 126.149 372.937C118.545 370.048 110.492 367.33 101.998 364.78C68.4458 354.919 35.3431 349.141 1.34069 347.442V348.799C34.4434 350.502 66.6553 356.109 99.7581 365.798C108.261 368.349 116.314 371.067 123.917 373.959C136.892 378.209 144.045 385.006 151.207 391.465C161.492 400.986 170.885 410.163 198.175 411.353C242.912 412.713 280.937 404.556 320.743 396.056C344.452 390.955 369.061 385.857 395.451 382.456C405.745 381.098 416.479 379.738 426.763 378.377C471.95 373.108 525.181 368.349 580.202 372.089C636.573 374.978 651.329 393.506 666.985 413.055C679.51 428.523 692.044 444.5 726.038 454.531C731.85 455.721 737.672 457.078 743.034 458.439C760.04 462.517 777.487 466.767 798.064 467.109L908.107 478.156H908.557C919.291 479.178 930.475 480.197 941.66 481.045C1019.49 484.785 1111.65 487.336 1204.69 477.475C1239.14 473.738 1269.11 474.757 1294.16 480.877C1344.26 492.775 1363.95 521.33 1371.1 537.311C1371.1 537.311 1371.1 537.478 1371.55 537.478C1376.03 540.371 1382.29 543.089 1389.89 545.81H1395.26C1394.36 546.32 1393.02 545.978 1392.13 545.468ZM136.892 358.15C186.991 391.297 269.752 397.075 390.08 375.826C401.264 374.469 412.898 372.937 424.082 371.58L441.529 369.368C468.819 365.969 497.45 362.4 524.731 359.34C557.834 357.808 592.286 356.109 620.467 361.549C658.932 372.089 679.069 388.066 698.306 403.534C723.797 423.931 747.506 443.139 810.589 450.79C827.136 453.17 845.033 455.04 862.03 456.739L1021.28 472.716H1021.73C1034.26 472.378 1044.55 472.549 1054.83 472.716C1058.86 472.716 1062.44 472.887 1066.47 472.887C1101.8 475.438 1145.65 473.226 1192.17 470.846C1261.5 467.448 1333.53 463.878 1374.69 476.966C1396.6 483.937 1408.24 494.984 1409.58 510.964C1411.81 515.214 1422.55 518.783 1430.61 521.501C1433.29 522.353 1435.97 523.372 1438.21 524.223C1438.65 524.39 1439.55 524.561 1440 524.732V523.033C1437.76 522.182 1435.52 521.501 1432.84 520.65C1424.34 517.761 1414.94 514.534 1412.71 510.964C1410.92 494.813 1399.29 483.424 1376.48 476.118C1334.42 462.517 1261.5 466.258 1191.28 469.656C1145.2 471.868 1101.36 474.077 1066.47 471.697C1062.44 471.697 1058.86 471.526 1054.83 471.526C1044.55 471.359 1034.26 471.188 1021.73 471.526L862.92 455.55C845.924 453.85 828.036 451.98 811.48 449.768C750.196 442.291 726.487 423.422 701.438 403.195C681.751 387.557 661.623 371.409 622.257 360.701C592.727 355.09 557.834 356.789 523.84 358.321C496.1 361.21 467.478 364.78 440.188 368.349L422.741 370.558C411.557 371.918 400.373 373.447 388.739 374.807C270.643 395.885 189.232 390.107 140.023 357.641C140.023 357.47 139.573 357.47 139.573 357.47C127.939 354.919 115.414 352.54 102.439 350.84C70.2364 346.252 36.6838 344.382 2.24037 344.382V345.743C36.234 345.572 69.3367 347.442 101.549 352.03C113.183 353.391 125.258 355.6 136.892 358.15ZM196.835 359.849C199.966 361.039 203.097 362.4 206.669 363.59C209.36 364.609 212.041 365.627 214.281 366.479C237.541 377.867 274.224 374.978 306.877 372.428C317.612 371.58 327.455 370.729 336.849 370.558C358.326 368.52 380.686 366.308 406.635 363.419C417.82 362.229 429.454 360.868 440.638 359.511C474.631 355.6 509.974 351.692 544.868 348.799C598.989 344.553 637.014 347.442 661.173 357.979C677.279 365.969 692.044 374.978 706.359 383.816C747.506 409.144 790.011 435.152 875.895 440.592L1035.16 456.739L1038.73 457.078C1048.57 457.929 1058.86 458.61 1069.6 459.29C1120.15 461.499 1169.8 459.628 1218.12 457.929C1289.69 455.379 1357.24 452.999 1424.34 462.688C1430.16 463.54 1435.08 464.559 1439.55 465.748V464.049C1435.52 463.027 1430.61 462.008 1425.68 461.328C1358.13 451.471 1290.13 453.85 1218.12 456.398C1170.25 458.1 1120.6 459.799 1070.49 457.758C1060.2 457.078 1049.91 456.23 1039.63 455.55L876.795 439.231C792.243 433.962 751.987 409.144 709.491 383.136C695.175 374.469 680.41 365.289 664.304 357.131C639.254 346.252 599.889 343.021 544.418 347.442C509.525 350.16 474.182 354.239 439.738 358.15C428.554 359.511 416.929 360.701 405.745 362.058C379.795 364.95 357.427 367.159 336.399 369.2C327.005 369.539 316.721 370.39 306.427 371.067C273.325 373.618 239.331 376.339 217.413 365.46C214.722 364.438 212.041 363.419 209.36 362.4C206.228 361.21 202.647 360.02 199.516 358.66C136.892 340.132 69.7865 335.711 1.79053 337.582V338.771C69.3367 337.072 134.201 341.493 196.835 359.849ZM229.488 348.799C237.091 349.989 245.594 350.84 254.537 351.692C272.434 353.391 291.221 355.261 304.196 359.678C304.646 359.849 305.087 359.849 305.537 359.849C320.302 359.511 335.958 358.831 352.955 357.979C367.27 357.131 382.476 356.109 399.923 354.752C419.16 353.22 438.397 351.521 457.185 349.822C500.581 345.91 541.737 342.341 583.333 340.642C661.623 337.243 700.538 357.979 741.694 379.737C763.612 391.297 785.981 403.366 815.061 411.524C838.77 418.324 869.192 421.893 898.713 425.463C903.635 426.143 908.557 426.652 913.479 427.333L1074.52 443.652C1080.33 443.99 1086.15 444.5 1092.41 445.009C1098.23 445.522 1104.04 445.86 1109.85 446.37C1164.88 450.958 1222.14 449.091 1277.17 447.221C1330.85 445.522 1386.32 443.819 1439.55 448.069V446.712C1386.32 442.462 1330.85 444.161 1277.17 445.86C1222.14 447.559 1165.33 449.43 1110.75 445.009C1104.93 444.67 1099.12 444.161 1093.31 443.652C1087.49 443.139 1081.67 442.8 1075.86 442.291L914.819 426.143C909.898 425.463 904.976 424.953 900.054 424.273C870.973 420.703 841.002 417.134 817.743 410.505C789.112 402.344 766.743 390.446 744.825 378.886C705.01 357.641 663.413 335.712 583.333 339.113C541.737 340.642 500.581 344.382 456.735 348.29C437.948 349.992 418.71 351.692 399.482 353.22C382.035 354.581 366.82 355.6 352.505 356.451C335.958 357.47 320.743 357.979 305.986 358.321C292.112 353.9 273.325 352.03 255.437 350.331C246.484 349.48 237.99 348.632 230.378 347.61C217.413 345.91 204.888 344.382 192.363 343.021C124.808 335.373 61.7336 331.633 1.34069 331.633V332.993C61.2837 332.993 123.917 336.734 191.463 344.211C203.988 345.572 216.963 347.1 229.488 348.799ZM302.405 346.42C315.821 346.932 330.137 347.1 345.801 346.762C389.639 345.743 433.926 341.493 476.422 337.411C503.262 334.864 530.552 332.142 558.284 330.272C629.411 325.855 680.86 331.971 720.666 349.141C778.827 377.358 839.211 406.426 931.366 411.695L965.81 415.093C989.969 417.302 1014.13 419.852 1037.84 422.232C1131.33 431.921 1228.4 441.781 1329.95 437.361C1338 437.19 1346.05 437.022 1354.11 436.851L1368.87 436.513C1392.58 436 1416.29 435.491 1439.55 435.491V434.13C1415.84 434.13 1392.58 434.643 1368.42 435.152L1353.66 435.491C1345.6 435.661 1337.55 435.832 1329.5 436C1228.4 440.421 1131.77 430.393 1038.29 420.874C1014.58 418.491 989.969 415.944 965.81 413.732L931.366 410.163C840.561 404.894 780.618 375.997 722.906 348.122C682.2 330.443 629.411 324.323 556.943 328.744C529.212 330.614 501.472 333.332 475.081 335.882C432.585 339.961 388.739 344.211 345.352 345.23C330.137 345.572 316.271 345.401 303.296 344.891C204.888 329.763 104.68 323.475 1.34069 326.022V327.383C104.68 325.174 203.988 331.462 302.405 346.42ZM325.224 331.462C341.321 331.971 358.326 331.971 377.555 331.462C409.317 330.614 442.419 328.402 474.182 326.364C564.996 320.415 658.932 314.295 734.981 338.091C741.244 340.471 747.956 342.683 754.219 345.062C815.502 367.33 879.026 390.275 964.919 398.265C980.125 399.964 999.812 402.005 1019.94 404.214C1127.3 415.435 1243.62 425.972 1366.18 425.801C1371.55 425.634 1376.92 425.463 1381.84 425.463C1389.45 425.292 1396.6 425.121 1403.76 424.953C1415.39 424.611 1427.03 424.444 1438.65 424.273V422.912C1427.03 423.083 1415.39 423.254 1403.76 423.593C1396.6 423.763 1389 423.931 1381.4 424.102C1376.03 424.273 1371.1 424.444 1365.74 424.444C1243.62 424.611 1127.75 414.074 1020.39 402.856C1000.26 400.815 980.125 398.607 964.919 396.904C879.926 389.085 816.852 366.14 755.559 344.04C749.297 341.66 742.593 339.281 735.881 337.072C658.042 312.763 563.655 319.054 471.95 325.003C440.188 327.044 407.526 329.253 375.773 330.104C356.977 330.614 339.98 330.614 324.324 330.104C217.854 316.846 108.261 317.013 0 321.263V322.624C109.602 318.545 218.753 318.203 325.224 331.462ZM282.277 314.295C303.296 314.805 322.084 315.485 339.53 316.504C353.846 317.355 368.611 317.864 383.817 318.374L395.001 318.716C423.632 318.035 451.813 316.504 479.103 314.975C549.789 311.064 616.436 307.495 683.991 317.865C737.222 324.323 781.059 337.072 824.005 349.48C872.764 363.59 923.313 378.209 986.837 382.968L1007.87 385.348C1022.63 387.047 1037.84 388.746 1052.6 390.275C1157.27 401.834 1269.56 413.055 1385.42 413.223C1402.87 414.074 1421.65 415.093 1440 415.944V414.584C1421.65 413.732 1403.32 412.884 1385.87 412.033C1270.01 411.865 1158.17 400.644 1053.49 389.085C1038.73 387.386 1023.52 385.857 1008.76 384.158L987.737 381.779C925.104 377.019 877.236 363.248 826.245 348.632C783.299 336.221 739.012 323.475 685.332 316.846C616.886 306.305 549.789 310.045 478.662 313.953C451.372 315.485 423.191 317.013 395.001 317.694L384.267 317.355C369.061 316.846 354.745 316.336 340.43 315.485C322.983 314.466 304.196 313.786 283.168 313.276C207.119 310.216 121.677 307.837 30.4214 310.897C49.2087 309.707 67.996 308.517 86.3423 307.156C158.36 302.226 233.069 297.125 292.562 301.546H293.012C312.249 301.036 331.036 300.865 349.374 301.036C368.611 301.207 387.848 301.717 406.186 302.565C421.842 303.077 438.847 303.245 458.084 303.077C478.653 303.077 499.231 302.736 518.918 302.397C586.023 301.375 649.539 300.356 710.381 308.175C755.559 314.975 794.034 326.193 831.167 337.072C879.026 351.011 924.213 364.099 981.916 368.858C1002.49 371.238 1022.63 373.447 1041.86 375.488C1176.96 389.598 1296.85 397.926 1408.68 400.815C1418.07 401.325 1428.37 402.005 1438.65 402.856V401.496C1428.37 400.815 1418.52 400.135 1408.68 399.455C1296.85 396.566 1176.96 388.237 1042.31 374.127C1023.07 372.089 1002.94 369.877 981.916 367.498C924.654 362.738 879.926 349.651 832.508 335.882C794.924 325.003 756.009 313.786 710.831 306.814C649.098 298.995 582.442 300.017 518.027 301.036C497.891 301.375 477.313 301.717 457.185 301.717C437.948 301.717 420.951 301.546 405.745 301.207C387.398 300.356 368.161 299.847 348.483 299.676C330.137 299.508 311.349 299.676 292.112 300.185C232.169 295.768 157.02 300.865 84.9928 305.796C56.8118 307.666 28.6308 309.707 0.899675 311.064V313.444C103.339 308.517 198.625 310.897 282.277 314.295ZM96.6268 296.787C159.251 291.856 218.753 287.097 268.403 290.157H268.853C289.881 288.967 310.458 288.116 330.137 287.439C397.242 285.06 458.525 284.889 518.468 286.926C538.155 287.439 558.283 288.287 577.97 289.477C706.8 296.958 833.849 318.374 955.525 352.882C955.525 352.882 955.975 352.881 955.975 353.049C978.784 356.451 1002.49 359.001 1020.84 360.868C1142.07 373.618 1273.14 382.117 1421.2 386.876C1427.47 387.218 1433.74 387.557 1440 387.895V386.538C1434.18 386.196 1427.92 385.857 1421.65 385.516C1274.04 380.756 1142.96 372.257 1021.73 359.511C1003.83 357.641 980.125 355.09 957.316 351.692C835.189 317.013 707.7 295.597 578.411 288.116C558.733 286.926 538.605 286.078 518.918 285.569C458.975 283.528 397.242 283.699 330.137 286.078C310.458 286.759 289.881 287.607 268.853 288.796C218.753 285.907 156.57 290.667 96.177 295.426C83.6521 296.448 71.1272 297.467 58.6023 298.315C41.6055 299.508 27.74 300.527 14.3154 301.207C9.8435 301.717 5.82143 302.055 1.79053 302.397V303.754C6.26244 303.416 10.7344 302.907 15.2151 302.565C28.6308 301.888 42.4964 300.865 59.502 299.676C71.5771 298.828 84.102 297.805 96.6268 296.787ZM118.995 287.268L123.017 286.926C158.36 284.037 198.175 280.81 230.378 280.297C250.065 278.769 271.534 277.069 293.012 275.709C391.87 269.25 472.391 269.25 547.549 275.538C566.336 276.218 585.124 277.24 603.47 278.43C738.113 287.268 859.789 309.194 956.416 341.661C973.422 345.062 991.309 348.29 1010.1 351.011C1074.07 360.359 1130.43 363.59 1186.8 361.039C1237.35 359.849 1287.45 362.571 1340.24 365.46C1370.21 367.159 1401.08 368.858 1432.39 369.71C1434.63 369.877 1436.87 370.048 1439.1 370.219V369.029C1436.87 368.858 1435.08 368.687 1432.84 368.52C1401.53 367.498 1370.65 365.798 1340.68 364.27C1287.45 361.381 1237.35 358.66 1186.35 359.849C1130.43 362.4 1074.96 359.34 1011.45 349.989C992.65 347.271 974.762 344.04 958.656 340.813C861.58 308.175 739.012 286.249 603.911 277.408C585.574 276.218 566.336 275.199 547.999 274.519C472.841 268.06 391.429 268.231 292.112 274.69C270.194 276.051 249.175 277.75 229.488 279.278C196.835 279.788 157.02 283.018 121.677 285.907L117.655 286.249C106.02 287.268 94.3865 288.116 82.3114 289.138C53.6806 293.556 26.8403 295.935 1.34069 296.277V297.638C27.2901 297.296 54.5803 294.916 83.6521 290.328C95.736 289.306 107.361 288.287 118.995 287.268ZM89.9146 276.898C102.889 276.051 115.864 275.199 127.939 274.519C150.757 273.158 174.466 271.801 194.594 271.968C206.228 271.12 218.303 270.098 230.378 269.25C238.881 268.57 246.934 267.89 255.437 267.209C268.853 266.19 281.828 265.171 293.903 264.32C306.877 263.13 318.952 262.792 330.586 262.621C344.902 262.45 358.326 262.111 371.292 259.899C384.267 259.39 397.242 258.881 409.767 258.71C466.578 257.52 518.027 258.881 566.786 263.301C586.023 264.491 605.252 266.019 624.048 267.719C756.459 279.62 878.136 303.077 985.047 337.582C985.047 337.582 985.497 337.582 985.497 337.753C1006.97 341.322 1026.65 343.873 1046.34 345.23C1068.7 346.933 1090.18 347.1 1112.1 346.081C1214.98 341.322 1320.56 344.382 1419.42 348.461C1426.13 348.799 1432.39 349.141 1439.1 349.651V348.29C1432.84 347.951 1426.13 347.442 1419.86 347.1C1321 343.021 1214.98 339.961 1111.65 344.72C1090.18 345.743 1069.15 345.401 1047.23 343.873C1027.99 342.512 1008.31 339.961 987.287 336.392C879.926 301.888 757.8 278.259 624.939 266.361C606.151 264.662 586.914 263.13 567.677 261.94C518.468 257.52 467.028 256.162 409.767 257.352C397.242 257.691 384.267 258.033 370.851 258.542H370.401C357.877 260.58 344.452 260.922 330.586 261.089C318.952 261.26 306.427 261.431 293.462 262.792C280.937 263.64 268.403 264.491 254.987 265.681C246.484 266.361 237.99 267.042 229.937 267.719C217.854 268.741 205.779 269.589 194.594 270.44C174.466 270.44 150.757 271.63 127.498 272.991C114.964 273.671 102.439 274.519 89.4735 275.37C80.0799 275.88 70.6774 276.56 61.2837 277.24C41.6055 278.598 21.4775 279.958 1.79053 280.639V282C21.4775 281.319 42.0554 279.958 62.1834 278.598C71.1272 278.088 80.5209 277.408 89.9146 276.898ZM119.445 262.792C125.258 262.279 130.629 261.94 135.992 261.431C141.364 261.089 146.285 260.58 151.207 260.241C161.042 259.39 173.126 258.542 183.41 258.033C208.91 256.33 234.409 253.612 259.009 251.061C312.249 245.451 367.27 239.673 427.663 243.413C438.847 243.584 449.132 243.923 458.525 244.261C468.819 244.603 479.553 245.283 489.838 245.964C512.656 246.473 535.915 247.492 560.524 249.024C694.276 257.52 816.402 277.408 924.213 308.004C929.135 309.874 934.947 311.574 941.21 312.934C955.075 317.013 968.5 321.263 981.916 325.684C981.916 325.684 982.365 325.684 982.365 325.855C999.812 328.915 1016.81 331.123 1032.91 332.142C1070.49 334.693 1106.28 331.804 1141.18 323.643C1180.09 313.953 1221.7 318.883 1265.98 323.984C1301.77 328.063 1338.9 332.313 1374.69 328.573C1384.97 327.892 1395.71 327.044 1406 325.855C1416.73 324.665 1427.48 323.304 1438.65 321.605V320.073C1427.03 321.943 1415.84 323.304 1405.11 324.494C1394.81 325.684 1384.53 326.535 1373.79 327.212C1338.45 330.952 1302.22 326.703 1266.87 322.624C1223.93 317.694 1179.2 312.425 1138.94 322.453C1104.49 330.443 1070.05 333.161 1033.36 330.781C1017.26 329.763 1000.7 327.725 983.706 324.665C974.762 321.605 965.369 318.716 956.416 315.823C968.05 317.526 980.125 318.545 990.868 318.374C1007.42 318.716 1022.18 317.013 1036.94 313.105C1106.28 295.258 1170.25 301.207 1231.98 306.814C1269.11 310.216 1307.14 313.786 1346.05 311.915C1354.56 310.726 1362.61 309.026 1370.21 306.647C1384.08 302.736 1397.94 299.676 1411.81 297.805C1420.76 296.616 1429.71 295.935 1439.1 295.597V294.236C1429.71 294.578 1420.31 295.258 1410.92 296.616C1396.6 298.486 1382.29 301.546 1368.42 305.625C1361.26 307.837 1353.66 309.536 1346.05 310.555C1308.03 312.254 1271.8 309.026 1233.32 305.457C1170.7 299.676 1106.28 293.727 1035.16 311.915C1021.28 315.656 1006.97 317.184 991.309 316.846C976.553 317.013 958.656 314.975 943.891 311.745C938.079 310.045 932.707 308.346 926.894 306.814C926.003 306.476 924.654 305.966 923.763 305.625C835.639 261.77 711.722 245.622 613.755 236.613C594.967 234.914 575.28 233.214 553.812 231.683C542.178 230.664 530.552 229.645 518.918 228.965C508.184 228.284 496.55 227.775 484.475 227.265C390.08 216.896 299.274 225.734 211.15 234.404C201.307 235.423 191.463 236.274 181.179 237.293C169.095 238.483 158.36 239.502 148.076 240.353L146.726 240.524C102.439 246.131 48.7588 253.102 1.34069 252.08V253.27C50.0995 254.292 105.13 247.153 147.626 241.714L148.967 241.543C159.251 240.692 169.994 239.673 182.069 238.483C191.913 237.464 201.756 236.613 212.041 235.594C299.724 227.094 390.08 218.085 484.025 228.455C496.55 228.965 508.184 229.474 518.468 230.154C530.102 230.835 541.737 231.854 553.362 232.872C574.839 234.404 594.517 236.103 613.305 237.803C708.591 246.641 828.036 262.111 914.819 303.245C809.69 274.519 691.144 255.65 561.865 247.492C537.256 245.964 513.997 245.112 491.187 244.432C480.894 243.752 470.159 243.071 459.866 242.733C450.472 242.394 440.188 242.052 429.004 241.881C368.161 238.144 312.69 243.923 259.009 249.701C234.409 252.251 208.91 254.973 183.41 256.672C172.676 257.181 161.042 258.033 150.757 258.881C145.836 259.222 140.464 259.732 135.542 260.07C130.179 260.58 124.367 260.922 118.995 261.431H118.545C76.4988 269.25 37.1336 271.968 1.79053 269.25V270.611C37.5747 273.329 76.9487 270.611 119.445 262.792ZM221.884 214.855C233.069 213.665 244.694 212.307 259.009 210.605C266.621 209.757 273.775 208.738 281.378 207.887C309.559 204.317 339.089 200.577 367.72 198.368C407.085 195.989 443.319 201.428 481.793 207.377C502.812 210.605 524.29 213.836 547.099 215.877C560.074 217.234 572.599 218.937 585.124 220.804H585.574C622.698 222.164 658.042 225.395 693.385 230.835C777.037 243.752 847.714 267.042 915.71 289.477C929.135 293.898 943 298.486 956.866 302.907C982.365 309.026 1006.07 308.685 1029.78 301.717C1047.23 296.448 1062 288.458 1076.75 280.639C1078.54 279.62 1080.33 278.598 1082.57 277.579C1087.49 274.861 1099.57 273.5 1116.12 274.009C1148.78 277.24 1172.04 279.62 1197.99 284.547C1210.51 286.249 1225.27 288.287 1239.14 289.986C1272.25 293.727 1314.29 296.787 1345.16 286.759C1357.24 283.189 1369.31 280.297 1381.84 278.259C1392.58 276.56 1403.76 275.37 1417.63 274.348C1425.23 273.5 1432.39 273.158 1439.1 272.991V271.63C1431.95 271.801 1424.34 272.31 1416.73 273.158C1402.87 274.18 1391.23 275.37 1380.05 277.24C1367.52 279.278 1355 282.167 1342.47 285.907C1318.76 293.556 1288.34 294.407 1239.58 288.967C1225.72 287.439 1210.95 285.398 1198.88 283.699C1172.93 278.769 1149.22 276.218 1116.12 272.991C1097.78 272.478 1084.36 273.839 1078.99 277.069C1077.2 278.088 1075.41 279.107 1073.18 280.129C1058.86 287.778 1044.1 295.768 1027.1 300.865C1004.73 307.495 982.815 307.837 958.656 302.055C944.791 297.638 930.916 293.046 917.501 288.629C849.055 266.019 778.377 242.733 693.826 229.813C658.042 224.376 622.698 220.974 585.124 219.785C572.599 217.915 560.074 216.215 547.099 214.855C524.731 212.817 503.262 209.586 482.234 206.358C443.319 200.406 406.635 194.799 365.929 197.349C336.849 199.729 307.327 203.466 278.696 207.035C271.093 208.058 263.931 208.906 256.328 209.928C242.013 211.627 230.828 212.984 220.094 214.174C190.122 214.345 156.12 219.104 123.017 223.864C79.1802 229.645 35.7929 235.765 1.34069 231.002V232.363C37.1336 236.955 81.8616 230.664 125.707 224.376C158.36 219.785 192.363 215.025 221.884 214.855ZM202.197 187.489C214.722 186.47 226.356 185.619 237.541 184.939L244.253 184.429L262.141 183.41C370.851 177.461 473.741 171.851 573.499 201.596L573.94 201.767C588.255 203.298 599.439 204.488 609.733 205.846L688.913 213.836C755.118 217.234 794.924 234.575 836.98 252.761C867.401 265.852 898.264 279.278 940.319 287.097C957.316 289.648 974.762 290.328 994 288.967C1004.73 288.287 1015.02 285.907 1026.2 281.319C1032.02 278.94 1037.84 276.051 1043.2 273.158C1046.34 271.459 1049.47 269.931 1053.04 268.231C1062.44 262.111 1071.83 259.222 1079.88 260.07C1106.28 261.089 1131.77 262.279 1156.38 263.469C1227.06 266.871 1294.16 270.269 1365.74 265.852C1381.84 264.83 1395.26 263.64 1407.79 261.77C1418.52 260.922 1429.26 260.58 1439.1 260.58V259.222C1428.82 259.222 1418.07 259.561 1406.89 260.412C1394.36 262.111 1380.95 263.469 1365.29 264.32C1294.16 268.741 1227.51 265.51 1156.83 261.94C1132.22 260.751 1106.28 259.561 1080.33 258.542C1070.49 257.52 1060.2 260.58 1049.91 267.38C1046.78 268.908 1043.2 270.611 1040.07 272.31C1034.26 275.199 1028.89 277.917 1023.52 280.297C1013.23 284.718 1003.83 286.926 993.55 287.607C975.203 288.967 958.207 288.287 942.101 285.737C900.945 278.088 870.083 264.659 840.111 251.742C799.405 234.062 757.35 215.877 689.804 212.307L610.623 204.317C600.339 203.127 589.155 201.767 574.839 200.406C473.74 170.319 370.401 176.101 260.8 182.05L242.912 183.068L236.2 183.578C224.566 184.429 212.941 185.28 200.407 186.299H199.966C124.367 201.428 55.921 197.517 0.899675 175.759V177.8L1.34069 177.971C57.7115 199.216 126.598 202.618 202.197 187.489ZM227.247 156.893C241.563 156.383 255.437 155.703 265.722 155.194C271.093 154.852 276.456 154.513 282.277 154.342C341.771 151.111 397.692 147.884 453.163 159.102C469.26 162.332 484.475 166.073 499.231 169.81C532.343 178.138 566.786 186.809 611.964 188.508L666.094 193.948C684.432 195.818 702.328 197.517 720.666 199.387C732.3 200.577 743.034 201.767 754.668 203.466C770.774 205.678 785.531 209.247 799.846 214.345C811.48 218.424 822.664 223.696 836.08 230.664C842.792 234.062 849.055 237.632 855.767 241.543C878.136 254.46 901.395 267.719 937.629 273.671C952.394 275.538 968.5 275.37 986.388 272.991C1004.28 269.76 1017.71 263.301 1030.23 257.01C1033.81 255.311 1037.39 253.612 1040.97 251.913C1049.02 250.723 1054.38 248.001 1058.41 245.964C1061.1 244.603 1063.34 243.242 1065.13 243.413H1065.57C1115.23 243.242 1162.64 245.283 1208.72 247.321C1251.67 249.191 1292.37 251.061 1334.87 251.232C1346.5 251.232 1357.69 251.061 1369.31 250.89C1392.58 248.511 1416.29 247.321 1440 247.492V246.131C1415.84 245.964 1392.13 247.153 1368.42 249.533C1357.69 249.701 1346.5 249.872 1334.87 249.872C1292.37 249.872 1252.11 248.001 1209.17 245.964C1163.09 243.923 1115.68 241.714 1066.02 241.881C1062 241.543 1059.31 243.071 1055.73 244.941C1051.7 246.983 1047.23 249.362 1039.63 250.552C1039.18 250.552 1039.18 250.723 1038.73 250.723C1035.16 252.422 1031.57 254.292 1027.54 255.992C1014.58 262.45 1002.05 268.57 985.047 271.459C968.05 273.671 952.844 273.839 938.969 272.139C903.635 266.361 880.817 253.27 858.448 240.524C851.745 236.613 845.483 233.043 838.77 229.645C825.346 222.506 814.162 217.405 802.087 213.155C787.321 207.887 772.115 204.146 755.559 201.938C743.934 200.238 732.75 199.049 721.566 197.859C703.219 195.989 684.882 194.119 666.985 192.419L612.414 186.98C567.677 185.28 533.684 176.781 501.022 168.452C486.265 164.712 470.609 160.801 454.503 157.573C398.133 146.014 338.639 149.412 281.378 152.643C276.015 152.982 270.643 153.323 264.831 153.494C254.537 154.004 240.672 154.684 226.356 155.194C144.495 163.18 67.996 151.624 1.79053 138.195V139.723C67.996 153.152 144.945 164.712 227.247 156.893ZM150.757 133.435L151.648 133.606C165.523 135.135 179.388 136.666 195.044 138.024C355.636 137.343 479.553 142.783 602.57 172.36H603.02C612.864 173.212 622.698 174.059 631.651 174.911C641.495 175.759 650.888 176.61 660.723 177.29C679.96 178.819 699.647 180.35 718.884 181.879C730.068 183.068 741.244 184.091 752.428 185.448C804.327 192.758 832.058 208.906 861.139 225.734C883.057 238.483 905.867 251.742 940.319 260.751C940.319 260.751 940.76 260.751 940.76 260.922C947.022 261.602 959.997 262.792 968.5 260.922C981.475 257.52 992.209 252.761 1001.15 248.682C1070.94 212.984 1180.09 223.864 1285.21 234.404C1298.64 235.765 1312.5 237.122 1325.93 238.483C1340.68 239.844 1353.66 240.863 1365.29 241.881C1365.74 241.881 1365.74 241.881 1366.18 241.881C1391.68 238.992 1415.84 236.613 1439.1 234.914V233.553C1415.39 235.423 1391.23 237.803 1365.74 240.692C1354.11 239.844 1341.58 238.822 1327.27 237.464C1313.84 236.274 1299.98 234.743 1286.56 233.385C1180.09 222.674 1069.6 211.627 998.471 248.001C989.519 252.08 979.234 256.501 966.709 259.899C959.547 261.431 947.922 260.241 942.101 259.732C908.557 250.89 886.189 237.803 864.27 225.053C836.08 208.738 807.008 191.739 753.778 184.258C742.593 182.901 730.959 181.879 719.775 180.689C700.538 179.161 680.86 177.629 661.623 176.101C651.779 175.249 642.385 174.569 632.542 173.721C623.598 172.87 613.755 172.189 603.911 171.17C543.518 156.722 478.212 147.033 403.504 141.935C331.036 136.834 257.228 136.495 195.044 136.666C179.829 135.305 165.964 133.774 152.098 132.246L151.207 132.075C131.07 130.037 112.283 126.977 93.9454 123.917C63.9739 118.816 35.3431 114.057 0.899675 114.566V115.927C34.4434 115.588 62.6332 120.348 92.6048 125.274C111.392 128.334 130.179 131.565 150.757 133.435ZM110.492 104.2C114.964 104.538 119.445 104.877 123.467 105.219C138.232 106.918 154.338 108.959 173.567 111.677C186.092 113.376 199.066 115.246 211.15 117.117C234.859 119.158 258.568 121.028 281.828 122.895C395.901 132.075 503.712 140.745 611.514 158.763C620.917 159.611 631.201 160.291 644.626 161.31C678.17 163.693 712.172 165.731 745.275 167.43C756.459 168.62 767.643 169.81 778.827 171.341C815.061 178.99 836.08 192.587 856.658 205.678C878.585 219.785 899.604 233.214 937.188 238.312C955.075 241.204 971.631 240.863 989.078 236.955C989.078 236.955 989.519 236.955 989.519 236.784C1072.73 204.827 1181.43 214.007 1286.56 223.016C1308.03 224.886 1330.4 226.756 1351.87 228.284C1363.95 229.136 1377.37 229.983 1390.34 230.154C1407.34 230.154 1423.89 228.284 1440 225.734V224.205C1423.89 226.923 1407.34 228.794 1390.34 228.794C1377.37 228.623 1364.39 227.775 1352.32 226.923C1330.85 225.395 1308.48 223.525 1287 221.655C1180.98 212.646 1071.83 203.298 986.837 235.765C970.731 239.334 955.075 239.844 938.528 236.955C901.845 232.025 881.717 218.937 859.789 204.998C839.211 191.739 817.743 177.971 780.168 170.152C768.984 168.62 757.8 167.43 746.166 166.24C712.622 164.541 679.069 162.5 645.517 160.12C632.092 159.102 621.808 158.421 612.864 157.741C505.503 139.723 397.242 131.056 283.168 121.876C259.909 120.006 236.2 118.135 212.941 116.098C201.307 114.399 188.332 112.528 175.807 110.658C155.679 107.598 140.023 105.557 124.808 103.858C120.336 103.519 115.864 103.178 111.392 102.839C83.2111 100.459 50.5494 97.7379 21.0277 99.0987L6.71228 99.95C4.92175 100.118 3.58106 100.118 1.79053 100.288V101.649C3.58106 101.478 5.37159 101.478 7.16212 101.307L21.4775 100.459C50.5494 99.2696 82.3114 101.817 110.492 104.2ZM165.523 90.7701C181.179 92.1308 197.276 94.001 216.513 96.7191C228.147 98.2474 240.222 100.118 253.647 102.33C277.356 105.048 301.065 107.769 324.774 110.658C360.108 113.376 392.77 117.797 427.213 122.727C462.106 127.657 498.34 132.755 538.155 135.644C563.205 138.533 586.023 141.084 607.942 143.463C616.886 144.144 626.28 144.653 638.804 145.504C679.51 148.055 719.775 150.263 764.062 152.643C778.827 154.171 791.793 156.551 804.327 160.12C828.477 167.092 845.483 176.949 862.03 186.638C868.742 190.549 875.895 194.628 883.057 198.368C896.473 205.336 916.16 213.497 945.682 216.557C970.731 219.104 994.89 214.687 1018.15 210.437C1029.78 208.396 1041.42 206.187 1053.04 204.827C1136.25 199.558 1220.8 205.507 1302.66 211.118C1315.18 211.966 1327.72 212.817 1340.24 213.665C1355.45 214.687 1368.87 215.535 1381.4 216.215C1403.76 217.576 1422.55 215.706 1439.55 212.307V210.776C1422.99 214.345 1404.21 216.386 1382.29 215.025C1370.21 214.345 1356.79 213.497 1341.13 212.475C1328.61 211.627 1316.08 210.776 1303.56 209.928C1221.7 204.146 1136.69 198.368 1052.6 203.637C1040.52 204.998 1028.44 207.206 1016.81 209.247C994 213.497 970.731 217.747 946.581 215.367C923.763 212.984 905.867 207.716 885.739 197.688C878.585 193.948 871.873 190.04 864.711 185.957C848.164 176.272 830.717 166.24 806.109 159.102C793.143 155.532 779.718 152.982 764.512 151.282C719.775 148.903 679.51 146.694 638.804 144.144C626.28 143.292 616.886 142.783 607.942 142.102C586.023 139.723 563.655 137.176 538.155 134.283C498.79 131.394 462.556 126.297 427.663 121.537C393.22 116.778 360.558 112.186 325.224 109.468C301.515 106.747 277.797 103.858 254.088 101.14C240.672 99.0987 228.597 97.2285 216.963 95.5293C197.726 92.8078 181.179 90.941 165.514 89.5803C113.183 86.3494 59.0522 88.0486 8.50281 90.2606C6.26244 90.4282 4.0309 90.4282 1.34069 90.5991V91.9599C4.0309 91.7889 6.26244 91.7889 8.95265 91.618C59.502 89.2384 113.624 87.5392 165.523 90.7701ZM99.3082 74.2804C132.411 73.4325 163.282 72.7521 193.704 77.1728C208.019 78.5302 222.334 80.4004 238.881 83.1218C249.616 84.8211 261.7 87.0297 274.665 89.4093C286.299 91.618 297.484 93.83 310.009 96.3806C389.189 109.127 464.347 117.455 543.968 126.126C556.052 127.486 568.577 128.847 581.102 130.204C590.936 131.056 602.121 131.904 615.545 132.584C671.907 135.815 730.509 137.685 794.924 138.533C809.69 140.574 823.555 143.805 836.98 148.393C846.373 152.134 855.317 156.383 864.27 160.462C892.901 173.892 922.422 187.66 972.522 188.85C1125.51 192.077 1245.85 195.479 1363.05 200.068C1375.58 200.577 1388.55 201.086 1402.87 201.086C1416.29 200.238 1428.37 198.539 1440 196.156V194.628C1428.37 197.178 1416.29 199.049 1402.87 199.897C1389 199.729 1376.03 199.387 1363.5 198.878C1246.3 194.289 1125.51 190.888 972.522 187.66C924.213 186.47 895.132 172.87 866.951 159.782C858.007 155.703 849.055 151.453 839.661 147.542C825.796 142.783 811.48 139.384 795.824 137.343H795.374C730.959 136.666 672.357 134.625 615.995 131.394C602.57 130.546 591.386 129.866 581.543 129.015C569.018 127.654 556.943 126.297 544.868 124.936C465.688 116.265 390.529 108.108 311.799 95.1908C299.274 92.6402 288.09 90.4282 276.456 88.2195C263.49 85.669 251.406 83.6313 240.672 81.932C224.116 79.2106 209.36 77.3404 195.044 75.9797C164.173 71.3914 132.861 72.0718 99.3082 72.9231C88.5739 73.2616 77.3897 73.4325 65.7645 73.6001C43.3961 73.771 21.0277 74.9608 1.34069 76.3215V77.6823C21.0277 76.3215 43.3961 75.1317 65.3146 74.7899C76.9487 74.7899 88.124 74.6223 99.3082 74.2804ZM266.621 73.6001C276.015 75.6412 285.409 77.5113 295.243 79.3815C391.87 100.118 498.79 114.057 613.305 120.686C624.048 121.366 634.782 121.876 645.517 122.385C700.538 124.765 756.459 125.107 812.371 123.237C828.036 128.334 844.583 133.093 862.03 137.856C944.791 160.12 1037.84 181.198 1160.4 182.901C1197.99 183.578 1236.01 183.578 1272.69 183.749C1295.96 183.749 1320.11 183.749 1343.81 183.92C1356.79 184.091 1368.87 184.258 1379.61 184.429C1401.08 185.957 1420.76 184.258 1440 181.031V179.499C1421.2 182.73 1401.08 184.429 1380.05 183.068C1368.87 182.901 1357.24 182.73 1343.81 182.559C1320.11 182.388 1295.96 182.388 1272.69 182.388C1236.01 182.388 1197.99 182.388 1160.4 181.54C1038.73 179.67 946.131 158.931 863.82 136.666C845.924 131.904 829.818 127.144 813.721 122.047C813.271 121.876 812.821 121.876 812.371 121.876C756.909 123.746 700.538 123.407 645.517 121.028C634.782 120.515 624.048 120.006 613.305 119.325C499.681 112.528 393.22 98.7602 297.034 78.0208C287.64 76.1506 278.246 74.2804 268.403 72.2427C184.31 54.5633 93.9455 58.984 1.34069 65.6133V66.9707C93.9455 60.3447 183.41 56.0949 266.621 73.6001ZM279.146 56.7719C287.199 58.6421 293.903 60.3447 300.165 61.873C398.582 93.3206 517.128 112.186 625.83 113.886C637.464 113.886 649.098 113.718 660.723 113.209C684.882 112.357 709.491 110.316 734.091 107.256C764.953 103.858 800.746 101.307 834.739 108.788C847.264 110.658 859.789 113.038 875.004 116.436C902.735 122.385 929.576 129.524 955.975 136.495C979.234 142.615 1003.39 149.074 1028.44 154.684C1104.04 170.49 1177.85 176.439 1253.9 172.36C1290.58 171.17 1325.03 170.322 1359.47 169.981C1364.39 169.981 1369.76 169.81 1374.69 169.81C1381.4 169.81 1388.1 169.642 1394.36 169.642C1410.47 169.471 1425.68 167.94 1439.55 165.392V163.861C1425.23 166.411 1410.47 168.11 1393.92 168.281C1387.21 168.281 1380.95 168.452 1374.24 168.452C1369.31 168.452 1363.95 168.62 1359.03 168.62C1324.59 168.962 1290.13 169.81 1253.46 171C1177.85 174.911 1104.93 169.129 1030.23 153.494C1005.18 147.884 981.025 141.425 957.766 135.305C931.366 128.334 904.526 121.195 876.795 115.246C861.58 112.019 848.614 109.468 836.53 107.598C801.637 99.95 764.512 102.497 733.2 106.067C709.041 109.127 684.432 110.997 660.723 112.019C649.539 112.528 637.914 112.696 626.279 112.696C518.918 110.997 400.823 92.2984 302.855 61.0217C296.593 59.4934 289.431 57.7942 281.378 55.924C191.013 37.0548 98.8672 44.026 1.34069 52.1837V53.5444C98.4174 45.3834 190.122 38.5864 279.146 56.7719ZM175.807 29.068C204.438 29.068 230.828 30.2578 256.778 32.6374C265.722 35.865 273.775 38.5864 280.937 41.1336C288.54 43.8551 296.593 46.4056 305.087 49.2946C384.717 85.1596 512.656 104.029 656.701 101.478C669.676 101.307 683.091 100.969 696.066 100.459C709.491 99.95 722.906 99.0987 736.331 98.0798C763.612 96.0387 791.352 93.1497 818.633 89.4093C826.245 91.1086 834.739 92.9787 843.692 95.1908C852.186 97.2285 861.139 99.2696 869.633 101.478C1041.86 143.463 1188.14 162.503 1330.4 161.652C1344.26 161.652 1358.13 161.31 1372 160.801C1397.05 160.633 1418.52 157.402 1439.1 152.814V151.282C1418.52 155.874 1397.05 159.272 1372 159.443C1358.13 159.953 1344.26 160.12 1330.4 160.291C1189.03 161.143 1043.2 142.102 871.873 100.288C863.37 98.2474 854.426 96.0387 845.924 94.001C836.08 91.7889 827.586 89.7512 819.983 88.0486C819.533 87.881 819.083 87.881 818.633 88.0486C790.902 91.7889 763.171 94.678 735.881 96.7191C722.456 97.7379 709.041 98.5892 695.616 99.0987C682.641 99.6081 669.226 99.95 656.251 100.118C513.106 102.668 386.058 83.9698 307.327 48.4433C298.824 45.5543 290.771 42.8362 283.168 40.2856C276.015 37.7351 267.962 35.017 259.009 31.7861C259.009 31.7861 258.568 31.6152 258.118 31.6152C231.728 29.068 204.438 27.8782 175.807 28.0458C150.757 28.0458 124.367 28.8971 94.3865 30.5963C64.8648 32.2956 34.4434 34.6752 5.37159 36.8872C4.0309 37.0548 3.13122 37.0548 1.79053 37.2257V38.5864C3.13122 38.4155 4.92175 38.4155 6.26244 38.2446C35.3431 36.0359 65.7645 33.6563 95.2861 31.957C124.808 29.9159 151.207 29.068 175.807 29.068ZM129.73 12.5784C186.991 4.58827 259.459 14.6195 308.218 26.6884C314.93 31.957 322.084 37.2257 330.586 41.9849C403.054 84.4792 532.784 101.82 668.776 87.5392C682.65 87.0297 697.407 86.1818 712.172 85.3305C724.697 84.4792 738.113 83.6313 751.987 82.4415C831.167 68.3314 890.211 82.0996 942.101 99.2696C952.844 102.33 963.578 105.39 973.422 108.108L981.916 110.487C1030.23 124.426 1080.33 139.046 1138.04 148.222C1164.88 153.323 1189.48 153.833 1218.12 154.513L1226.17 154.684C1262.4 153.833 1293.71 148.903 1323.69 143.973C1327.27 143.463 1330.85 142.783 1334.42 142.273C1344.26 140.745 1356.34 138.875 1368.42 137.343C1394.36 137.343 1417.18 134.454 1438.65 130.375V128.847C1416.73 133.093 1393.92 136.153 1367.97 135.986H1367.52C1355 137.514 1342.92 139.384 1333.08 140.913C1329.5 141.425 1325.93 142.102 1322.35 142.615C1292.37 147.374 1261.5 152.301 1226.17 153.152L1218.12 152.982C1189.93 152.301 1165.33 151.792 1138.94 146.865C1081.22 137.685 1031.57 123.237 983.256 109.297L974.762 106.918C964.919 104.029 954.184 100.969 943.45 98.0798C890.66 80.7422 830.268 66.6322 749.747 81.0807C736.331 82.0996 723.356 83.1218 710.831 83.9698C696.066 84.992 681.301 85.669 667.435 86.1818C532.343 100.459 404.395 83.1218 332.827 41.1336C324.774 36.3744 317.171 31.2767 310.458 25.8371C310.458 25.6662 310.009 25.6662 310.009 25.4986C260.8 13.0878 186.991 2.88904 128.389 11.2176C118.096 11.7271 104.23 12.5784 90.3644 13.4297C64.8648 14.787 39.3652 16.4896 14.3154 18.1889C10.2933 18.5274 5.81261 18.8692 1.34069 19.0368V20.5685C5.81261 20.2266 10.2933 19.8881 14.7653 19.7172C39.815 18.0179 65.7645 16.3187 90.8142 14.958C102.439 14.1067 114.073 13.4297 129.73 12.5784ZM336.849 18.3564C342.661 23.796 348.933 29.068 356.536 34.1657C396.792 62.5534 456.294 81.932 519.809 87.3716C572.149 91.9599 624.048 87.2007 674.147 73.4325L686.223 71.5623C692.044 70.711 697.857 69.6922 703.669 68.8409C717.094 66.8031 727.378 65.1039 737.222 63.5722C737.222 63.5722 737.672 63.5722 737.672 63.4013C804.327 40.1147 872.764 62.7243 932.707 82.78C944.341 86.5203 955.075 90.0897 965.369 93.3206L976.103 96.7191C981.025 98.2474 985.947 99.95 990.868 101.478C1031.12 114.228 1074.52 127.486 1126.86 137.005C1170.7 144.144 1231.09 148.393 1346.5 126.806C1357.24 124.765 1368.42 122.556 1381.84 119.838C1398.39 116.436 1414.94 112.019 1430.6 107.769C1433.74 106.918 1436.87 106.067 1440 105.219V103.519C1435.97 104.538 1432.39 105.557 1428.37 106.579C1412.26 110.829 1396.15 115.076 1379.61 118.477C1366.18 121.195 1355 123.407 1344.26 125.445C1280.3 137.514 1204.25 148.055 1127.75 135.644C1075.86 126.126 1032.46 113.038 992.65 100.288C987.737 98.7602 982.815 97.2285 977.894 95.5293L967.159 92.1308C956.866 89.0708 946.132 85.5014 934.497 81.7611C876.345 62.3824 803.877 38.4155 734.981 62.3824C725.147 63.9141 714.853 65.4424 701.879 67.4835C696.066 68.3314 690.253 69.3537 684.432 70.2016L672.357 72.2427C623.148 85.8399 572.149 90.4282 520.709 86.0109C458.076 80.5713 399.482 61.3636 359.217 33.4854C352.064 28.3876 345.352 23.1156 339.53 17.6794C327.005 10.5373 310.908 4.7592 292.112 0.170929H284.959C306.877 5.26864 324.324 11.5595 336.849 18.3564ZM361.008 11.2176C369.511 17.5085 376.664 24.1379 383.817 30.5963C406.186 51.1648 427.213 70.3725 482.234 79.3815C559.624 92.2984 630.31 74.6223 699.197 57.6232C706.8 56.6044 714.403 54.9051 722.015 52.6931C732.75 49.8041 742.593 46.0637 751.987 42.6652C775.246 34.1657 794.924 26.856 818.633 30.5963C867.401 37.2257 907.207 53.5444 946.132 69.5212C964.469 77.0019 982.815 84.6501 1002.49 91.2795C1010.55 94.001 1018.6 96.5481 1027.1 99.2696C1056.62 108.788 1080.33 115.756 1103.15 122.047C1197.54 146.352 1281.64 125.107 1363.05 104.367C1370.65 102.33 1378.71 100.459 1386.32 98.4183C1399.29 95.1908 1409.58 92.6402 1418.97 90.5991C1426.13 89.7512 1432.84 88.5614 1439.1 87.2007V85.669C1431.95 87.2007 1424.79 88.5614 1417.63 89.4093C1407.79 91.618 1397.05 94.1685 1384.08 97.3994C1376.48 99.2696 1368.42 101.307 1360.82 103.348C1280.3 123.746 1197.54 144.824 1104.93 121.028C1082.12 114.908 1058.86 107.937 1029.33 98.4183C1021.28 95.8678 1013.23 93.1497 1005.18 90.4282C985.947 83.7988 967.159 76.1506 948.813 68.6733C909.898 52.6931 869.633 36.2068 819.983 29.4065C794.483 25.3277 772.565 33.3178 749.747 41.6464C740.353 45.0449 730.509 48.6143 720.225 51.5033C712.622 53.7153 705.01 55.2436 697.857 56.2625L697.407 56.4334C629.411 73.2616 559.183 90.5991 484.025 78.0208C430.344 69.3537 409.317 50.1426 387.398 29.9159C380.245 23.4575 373.083 16.6572 364.589 10.3697C359.667 6.8003 354.745 3.39847 349.374 0.170929H345.352C350.714 3.74033 356.086 7.30973 361.008 11.2176ZM871.423 10.7082C877.686 14.2776 883.948 18.0179 889.77 21.5873C929.576 45.2158 967.6 67.6511 1024.86 87.2007C1035.16 91.1086 1044.55 94.3395 1053.49 97.2285C1111.65 116.265 1163.09 122.047 1220.35 116.265C1265.98 111.506 1305.35 101.307 1346.95 90.5991C1376.03 83.1218 1406 75.4702 1439.1 69.3537V67.822C1405.11 73.9419 1374.69 81.7611 1344.71 89.4093C1303.11 100.118 1264.19 110.149 1219.01 114.908C1163.09 120.515 1112.54 114.737 1055.28 96.2096C1046.33 93.3206 1036.94 90.0897 1027.1 86.1818C969.841 66.8031 932.266 44.5354 892.451 20.907C886.188 17.3376 880.367 13.5972 874.105 10.0278C865.161 5.26864 856.658 2.04109 847.714 0.338507H834.739C847.264 0.680365 859.348 4.07884 871.423 10.7082ZM468.369 70.3725C540.837 89.9188 605.702 70.711 663.413 53.7153C677.729 49.4655 691.144 45.5543 703.669 42.3267C713.513 40.7951 723.356 38.077 734.54 33.9948C745.725 29.9159 756.459 24.9858 766.743 20.2266C788.221 10.3697 808.349 1.01887 829.818 0H816.852C798.955 3.2309 781.958 11.0501 764.062 19.3787C753.777 24.1379 743.034 29.068 732.3 32.9759C721.566 36.8872 712.172 39.4344 702.328 41.1336C688.913 44.5354 675.488 48.4433 661.623 52.6931C605.252 69.3537 541.287 88.2195 471.05 69.3537C429.454 57.9617 416.479 41.1336 402.613 23.2866C396.792 15.6383 390.529 7.81917 382.035 0.170929H378.005C386.948 7.81917 393.22 15.8093 399.032 23.6284C412.898 41.814 426.322 58.813 468.369 70.3725ZM522.049 70.882C625.389 69.3537 709.041 30.9348 740.353 14.6195C746.615 10.3697 752.428 5.949 757.8 1.87017L759.59 0.509436H755.559L754.219 1.36073C748.856 5.6105 743.034 9.86026 736.772 14.1067C705.91 30.2578 623.598 68.1639 521.6 69.8631C444.66 69.8631 433.926 44.5354 422.291 17.847C420.06 12.0689 417.37 5.949 414.238 0.170929H410.657C414.238 5.949 416.479 12.0689 419.16 18.0179C429.895 44.1936 441.529 71.2205 522.049 70.882ZM1012.79 65.6133C1022.18 68.8409 1033.36 72.7521 1044.1 76.4925C1077.2 87.881 1106.72 96.2096 1136.25 102.839C1201.12 116.946 1249.43 97.9089 1291.47 80.9098C1306.69 74.9608 1321 69.1827 1335.32 64.933C1346.05 62.5534 1359.03 62.0439 1372 61.3636C1386.76 60.6832 1401.53 60.0028 1415.84 56.9429C1423.44 56.2625 1431.05 55.4146 1438.65 54.3923V52.864C1430.61 53.8829 1422.55 54.9051 1414.5 55.5821H1414.05C1400.19 58.6421 1385.42 59.3225 1371.1 60.0028C1357.24 60.6832 1344.26 61.1926 1332.63 63.7432C1317.87 67.9929 1303.56 73.771 1288.34 79.8909C1244.96 97.2285 1199.77 115.076 1137.59 101.478C1108.06 94.8489 1078.99 86.5203 1045.89 75.3027C1034.71 71.5623 1023.97 67.822 1014.58 64.4235C979.684 53.2025 955.975 36.8872 932.707 21.2488C921.973 13.7682 911.238 6.62937 900.054 0.170929H895.582C907.207 6.8003 918.392 14.2776 929.576 21.9258C953.735 37.906 977.444 54.2248 1012.79 65.6133ZM1065.13 62.8919C1078.99 67.9929 1091.07 72.5812 1104.93 76.831C1141.18 87.881 1172.04 90.941 1202.01 86.6912C1227.06 81.7611 1249.43 74.2804 1270.46 66.8031C1307.14 54.0538 1344.71 40.966 1399.29 42.1558C1412.26 42.1558 1425.68 41.4754 1439.1 40.4566V39.0958C1425.68 40.2856 1412.26 40.7951 1399.29 40.966C1343.37 39.7762 1304.9 53.2025 1267.77 66.1228C1246.75 73.4325 1224.83 81.0807 1200.22 85.8399C1172.04 89.9188 1142.07 86.8588 1107.17 76.1506C1093.31 72.0718 1081.22 67.4835 1067.36 62.2115C1010.1 45.5543 973.422 22.9481 938.528 0.680365H934.497C969.841 22.7771 1006.97 45.8961 1065.13 62.8919ZM514.446 62.5534C585.574 67.6511 639.704 42.8362 687.563 21.0779C699.647 15.4674 711.272 10.1988 723.356 5.26864C726.038 3.74033 728.719 2.04109 731.409 0.170929H727.378C725.147 1.69924 722.906 3.05997 720.666 4.4207C709.041 9.1799 697.407 14.6195 684.882 20.2266C635.673 42.8362 584.233 66.2937 515.337 61.1926C452.713 56.4334 444.66 34.3366 436.157 11.0501C434.816 7.48066 433.476 3.74033 432.135 0.170929H428.554C430.344 3.90791 431.685 7.64824 433.026 11.2176C440.638 34.1657 449.132 57.6232 514.446 62.5534ZM1063.78 40.6242C1075.86 44.5354 1086.15 47.5954 1095.99 50.4844C1106.72 53.7153 1117.02 56.4334 1127.3 59.1549C1127.3 59.1549 1127.75 59.1549 1127.75 59.3225C1131.33 59.6643 1135.8 60.3447 1140.28 61.0217C1150.12 62.5534 1161.3 64.4235 1171.59 63.5722C1205.14 60.0028 1233.77 51.8452 1261.5 43.8551C1305.79 31.1058 1347.85 19.2077 1406 25.8371C1416.73 26.1756 1427.47 26.1756 1439.1 25.8371V24.4764C1427.92 24.8182 1417.18 24.8182 1406.45 24.4764C1346.95 17.6794 1304.01 29.9159 1258.82 42.8362C1231.09 50.6553 1202.91 58.813 1170.25 62.2115C1161.3 62.8919 1150.57 61.1926 1141.18 59.6643C1136.69 58.984 1132.22 58.3036 1128.64 57.7942C1118.36 55.2436 1108.51 52.3546 1097.78 49.2946C1087.94 46.4056 1077.65 43.1747 1065.57 39.4344C1029.33 28.8971 1003.83 14.787 980.575 0.170929H976.553C1000.26 15.1289 1026.2 29.745 1063.78 40.6242ZM508.184 52.0127C589.596 60.1738 659.382 27.0269 715.753 0.338507H711.272C656.251 26.6884 587.805 58.6421 509.075 50.6553C455.844 45.3834 452.263 24.6473 448.682 2.88904C448.682 2.04109 448.241 1.1898 448.241 0.170929H444.66C444.66 1.01887 445.11 2.04109 445.11 2.88904C448.682 24.3055 452.713 46.4056 508.184 52.0127ZM516.237 40.1147C569.468 53.5444 631.651 25.6662 681.301 0.170929H676.829C628.52 24.9858 568.577 51.5033 518.027 38.9249C484.925 30.7672 475.972 16.3187 470.159 0.170929H466.578C472.391 16.6572 481.794 31.6152 516.237 40.1147ZM1056.17 12.7493C1075.41 18.3564 1093.76 23.796 1116.57 28.0458C1122.83 28.7261 1129.09 29.5774 1134.91 30.4254C1137.59 30.7672 1140.28 31.2767 1142.52 31.6152C1150.57 32.6374 1158.62 33.6563 1166.67 32.9759C1194.41 30.0869 1221.25 24.9858 1247.19 20.2266C1301.77 10.0278 1352.77 0.509436 1413.6 9.00897C1421.65 9.51841 1430.16 10.0278 1439.55 10.1988V8.83804C1430.61 8.67046 1422.55 8.32861 1414.5 7.81917C1352.77 -1.01887 1300.88 8.83804 1245.85 19.0368C1220.35 23.796 1193.51 28.7261 1166.23 31.6152C1159.51 32.1246 1151.46 31.2767 1144.31 30.2578C1141.62 29.9159 1139.39 29.5774 1136.69 29.068C1130.43 28.2167 1124.62 27.1978 1118.36 26.6884C1095.99 22.4386 1078.09 17.1666 1058.86 11.5595C1053.04 9.86026 1047.23 8.15768 1040.97 6.45844C1035.6 4.4207 1030.67 2.3796 1025.76 0.170929H1020.84C1026.65 2.71811 1032.46 5.09771 1038.73 7.48066C1044.55 9.34748 1050.81 11.0501 1056.17 12.7493ZM553.362 26.3465C592.286 25.3277 617.336 13.5972 641.495 2.20867C642.835 1.52831 644.176 0.851294 645.517 0.170929H641.045C640.145 0.509436 639.254 0.851294 638.804 1.36073C615.095 12.5784 590.495 24.1379 552.921 24.9858C513.547 26.008 500.581 14.4485 494.318 0.170929H490.737C497.45 15.1289 510.865 27.3654 553.362 26.3465Z" fill="white" fill-opacity="0.4"/>
</svg>
