<svg xmlns="http://www.w3.org/2000/svg" version="1.1" xmlns:xlink="http://www.w3.org/1999/xlink" xmlns:svgjs="http://svgjs.dev/svgjs" width="1000" height="1000"><g clip-path="url(#SvgjsClipPath1289)"><rect width="1000" height="1000" fill="#000000"></rect><g transform="matrix(6.1946902654867255,0,0,6.1946902654867255,150,233.62831858407083)"><svg xmlns="http://www.w3.org/2000/svg" version="1.1" xmlns:xlink="http://www.w3.org/1999/xlink" xmlns:svgjs="http://svgjs.dev/svgjs" width="113" height="86"><svg width="113" height="86" viewBox="0 0 113 86" fill="none" xmlns="http://www.w3.org/2000/svg">
<path d="M82.6752 66.107L93.341 86H113L92.4919 47.833L82.6752 66.107Z" fill="white"></path>
<path d="M67.1938 38.0851L77.0135 19.852L66.3491 0H46.1987L35.6245 19.852L45.4738 38.2222L56.3558 17.8615L67.1938 38.0851Z" fill="white"></path>
<path d="M28.7203 66.107L19.659 86H0L18.8739 47.7777L28.7203 66.107Z" fill="white"></path>
<path d="M19.659 0L56.192 68.1385L92.8888 0H112.548L66.3491 86H46.1986L0 0H19.659Z" fill="white"></path>
</svg></svg></g></g><defs><clipPath id="SvgjsClipPath1289"><rect width="1000" height="1000" x="0" y="0" rx="200" ry="200"></rect></clipPath></defs></svg>