<svg width="60" height="60" viewBox="0 0 60 60" fill="none" xmlns="http://www.w3.org/2000/svg">
<path d="M46.427 13C46.1613 13.0056 45.9038 13.0929 45.6895 13.25C45.5229 13.4167 45.3541 13.6583 45.3541 13.9021C45.3541 14.3187 45.8458 14.8896 46.7562 15.825C50.552 19.4791 52.4603 23.9562 52.4478 29.3541C52.4332 35.327 50.427 40.1249 46.5229 43.8415C45.702 44.577 45.3645 45.154 45.3624 45.6478C45.3624 45.8895 45.5291 46.1415 45.6958 46.3832C45.8948 46.5769 46.1545 46.6961 46.4312 46.7207C47.3353 46.7207 48.5978 45.654 50.2499 43.577C53.4624 39.6395 54.9166 35.2895 54.9978 29.3604C55.0728 23.4291 53.2124 19.4083 49.5749 15.2562C48.2624 13.7729 47.1728 13.0021 46.427 13ZM13.5751 13.0042C12.8292 13.0042 11.7376 13.775 10.4292 15.2604C6.78759 19.4125 4.92718 23.4333 5.00218 29.3645C5.08551 35.2937 6.53759 39.6416 9.75216 43.5811C11.4001 45.6582 12.6647 46.727 13.5688 46.7249C13.845 46.7009 14.1043 46.5816 14.3021 46.3874C14.4688 46.1457 14.6355 45.8936 14.6355 45.652C14.6355 45.1582 14.298 44.5811 13.4771 43.8478C9.57508 40.1291 7.56675 35.3332 7.55217 29.3583C7.53967 23.9604 9.448 19.4833 13.2438 15.8292C14.1542 14.8937 14.648 14.325 14.6459 13.9062C14.6459 13.6625 14.4792 13.4208 14.3105 13.2542C14.0962 13.0971 13.8387 13.0098 13.573 13.0042H13.5751ZM28.275 14.8687C28.275 14.8687 29.6396 19.2041 22.7563 28.8833C16.1813 38.1187 24.9334 43.7791 25.7396 44.2707C25.1542 43.8957 21.5709 41.1457 26.5771 32.9728C27.5479 31.3687 28.8188 29.9104 30.3979 26.6374C30.3979 26.6374 31.7937 28.6083 31.0646 32.8833C29.975 39.3436 35.7958 37.4957 35.8854 37.5853C37.9187 39.9811 34.2021 44.1895 33.975 44.3207C33.75 44.4478 44.5916 37.7999 36.8896 27.7895C36.3625 28.3166 35.6771 30.7937 34.25 30.427C32.825 30.0645 38.677 23.1479 28.275 14.8687ZM25.7396 44.2707C25.7875 44.304 25.8188 44.3207 25.8188 44.3207L25.7396 44.2707Z" fill="white"/>
</svg>
