<svg width="60" height="60" viewBox="0 0 60 60" fill="none" xmlns="http://www.w3.org/2000/svg">
<path d="M9.625 35.4375C9.625 26.8125 13.9375 17.8125 19 17.8125C21.8125 17.8125 24.0625 19.5 27.625 24.5625C24.25 29.8125 22.1875 33 22.1875 33C17.6875 40.125 16.1875 41.625 13.75 41.625C11.3125 41.8125 9.625 39.5625 9.625 35.4375ZM39.0625 32.25L35.875 27C35.125 25.6875 34.1875 24.375 33.4375 23.25C36.25 18.9375 38.5 16.6875 41.3125 16.6875C46.9375 16.6875 51.4375 25.125 51.4375 35.625C51.4375 39.5625 50.125 41.8125 47.5 41.8125C44.875 41.8125 43.9375 40.125 39.0625 32.25ZM31 19.5C26.875 14.0625 23.3125 12 19.1875 12C10.5625 12 4 23.4375 4 35.4375C4 42.9375 7.5625 47.625 13.5625 47.625C17.875 47.625 20.875 45.5625 26.5 35.8125C26.5 35.8125 28.75 31.6875 30.4375 28.875C31 29.8125 31.5625 30.75 32.125 31.875L34.75 36.375C39.8125 45 42.625 47.8125 47.6875 47.8125C53.5 47.8125 56.6875 42.9375 56.6875 35.25C56.5 22.5 49.75 12 41.6875 12C37.375 12 34 15.375 31 19.5Z" fill="white"/>
</svg>
