<svg width="60" height="60" viewBox="0 0 60 60" fill="none" xmlns="http://www.w3.org/2000/svg">
<g clip-path="url(#clip0_139_1570)">
<path d="M55 17.9625C55 19.1902 54.5123 20.3677 53.6441 21.2358C52.776 22.104 51.5986 22.5917 50.3708 22.5917H31.85C30.6223 22.5917 29.4448 22.104 28.5767 21.2358C27.7085 20.3677 27.2208 19.1902 27.2208 17.9625C27.2208 16.7348 27.7085 15.5573 28.5767 14.6892C29.4448 13.8211 30.6223 13.3333 31.85 13.3333H50.3708C52.9271 13.3333 55 15.4063 55 17.9625ZM39.7229 37.4083H21.2021C19.9744 37.4083 18.7969 37.8961 17.9288 38.7642C17.0606 39.6323 16.5729 40.8098 16.5729 42.0375C16.5729 43.2652 17.0606 44.4427 17.9288 45.3108C18.7969 46.179 19.9744 46.6667 21.2021 46.6667H39.7229C40.9506 46.6667 42.1281 46.179 42.9962 45.3108C43.8644 44.4427 44.3521 43.2652 44.3521 42.0375C44.3521 40.8098 43.8644 39.6323 42.9962 38.7642C42.1281 37.8961 40.9506 37.4083 39.7229 37.4083ZM39.7229 25.3708H32.3125C31.0848 25.3708 29.9073 25.8586 29.0392 26.7267C28.171 27.5948 27.6833 28.7723 27.6833 30C27.6833 31.2277 28.171 32.4052 29.0392 33.2733C29.9073 34.1415 31.0848 34.6292 32.3125 34.6292H39.7208C40.9486 34.6292 42.126 34.1415 42.9941 33.2733C43.8623 32.4052 44.35 31.2277 44.35 30C44.35 28.7723 43.8623 27.5948 42.9941 26.7267C42.126 25.8586 40.9506 25.3708 39.7229 25.3708ZM9.62917 37.4083C9.02126 37.4083 8.4193 37.5281 7.85766 37.7607C7.29603 37.9934 6.78571 38.3343 6.35585 38.7642C5.92599 39.1941 5.58501 39.7044 5.35237 40.266C5.11974 40.8276 5 41.4296 5 42.0375C5 42.6454 5.11974 43.2474 5.35237 43.809C5.58501 44.3707 5.92599 44.881 6.35585 45.3108C6.78571 45.7407 7.29603 46.0817 7.85766 46.3143C8.4193 46.5469 9.02126 46.6667 9.62917 46.6667C10.8569 46.6667 12.0343 46.179 12.9025 45.3108C13.7706 44.4427 14.2583 43.2652 14.2583 42.0375C14.2583 40.8098 13.7706 39.6323 12.9025 38.7642C12.0343 37.8961 10.8569 37.4083 9.62917 37.4083Z" fill="white"/>
</g>
<defs>
<clipPath id="clip0_139_1570">
<rect width="50" height="50" fill="white" transform="translate(5 5)"/>
</clipPath>
</defs>
</svg>
