<svg width="60" height="60" viewBox="0 0 60 60" fill="none" xmlns="http://www.w3.org/2000/svg">
<path d="M29.9972 5C16.1884 5 5 16.1957 5 30.0028C5 30.3334 5.01109 30.6667 5.02773 30.9973C7.44011 26.2829 12.2094 20.8629 18.9946 17.5875C18.9835 17.4375 18.9668 17.2819 18.9668 17.1236C18.9668 13.9427 21.5456 11.3674 24.726 11.3674C25.7049 11.3664 26.6678 11.6161 27.5233 12.0926C28.3788 12.5692 29.0986 13.2568 29.6145 14.0903C30.1303 14.9238 30.425 15.8755 30.4706 16.8551C30.5163 17.8348 30.3114 18.8099 29.8753 19.6879C29.4392 20.5659 28.7865 21.3177 27.979 21.872C27.1715 22.4264 26.236 22.7648 25.2613 22.8552C24.2866 22.9457 23.3051 22.7851 22.4097 22.3888C21.5143 21.9924 20.7349 21.3735 20.1453 20.5906C13.105 24.7522 9.45597 33.2781 8.94854 43.4765C10.2732 45.543 11.8953 47.4021 13.7622 48.9938C17.8494 39.2705 24.6734 32.3253 37.8749 27.9998C37.8749 27.922 37.8638 27.8498 37.8638 27.772C37.8638 24.5938 40.4398 22.0186 43.6147 22.0186C46.7951 22.0186 49.3711 24.5966 49.3711 27.7692C49.3719 28.9844 48.9889 30.1688 48.277 31.1527C47.5652 32.1366 46.5609 32.8697 45.4079 33.247C44.2549 33.6244 43.0123 33.6266 41.858 33.2535C40.7036 32.8803 39.6967 32.1509 38.9813 31.1696C28.7827 35.8645 22.2832 46.3879 21.992 53.6804C24.5723 54.556 27.2785 55.0017 30.0028 55C43.8116 55 55 43.8126 55 29.9972C54.9972 16.1957 43.8088 5 29.9972 5Z" fill="white"/>
</svg>
